<svg width="16" height="16" viewBox="0 0 16 16" fill="none" xmlns="http://www.w3.org/2000/svg">
<path fill-rule="evenodd" clip-rule="evenodd" d="M8 0C8.2599 0 8.47059 0.21069 8.47059 0.470588V6.11765C8.47059 6.37755 8.2599 6.58824 8 6.58824C7.7401 6.58824 7.52941 6.37755 7.52941 6.11765V0.470588C7.52941 0.21069 7.7401 0 8 0ZM0 8C0 7.7401 0.21069 7.52941 0.470588 7.52941L15.5294 7.52941C15.7893 7.52941 16 7.7401 16 8C16 8.2599 15.7893 8.47059 15.5294 8.47059H0.470588C0.21069 8.47059 0 8.2599 0 8ZM8 9.41177C8.2599 9.41177 8.47059 9.62245 8.47059 9.88235V15.5294C8.47059 15.7893 8.2599 16 8 16C7.7401 16 7.52941 15.7893 7.52941 15.5294V9.88235C7.52941 9.62245 7.7401 9.41177 8 9.41177Z" fill="black"/>
</svg>
