<svg width="27" height="24" viewBox="0 0 27 24" fill="none" xmlns="http://www.w3.org/2000/svg">
<path fill-rule="evenodd" clip-rule="evenodd" d="M25.6945 13.3098C24.9733 14.031 23.804 14.031 23.0828 13.3098L12.9256 3.15261C12.2044 2.43141 12.2044 1.26211 12.9256 0.540903C13.6468 -0.180302 14.8161 -0.180302 15.5373 0.540903L25.6945 10.6981C26.4157 11.4193 26.4157 12.5886 25.6945 13.3098Z" fill="#448FDA"/>
<path fill-rule="evenodd" clip-rule="evenodd" d="M25.6945 10.6902C26.4157 11.4114 26.4157 12.5807 25.6945 13.3019L15.5373 23.4591C14.8161 24.1803 13.6468 24.1803 12.9256 23.4591C12.2044 22.7379 12.2044 21.5686 12.9256 20.8474L23.0828 10.6902C23.804 9.96901 24.9733 9.96901 25.6945 10.6902Z" fill="#448FDA"/>
<path fill-rule="evenodd" clip-rule="evenodd" d="M0 12.0025C-4.6812e-08 10.9316 0.868163 10.0634 1.9391 10.0634L23.6871 10.0634C24.7581 10.0634 25.6262 10.9316 25.6262 12.0025C25.6262 13.0735 24.7581 13.9416 23.6871 13.9416L1.9391 13.9416C0.868163 13.9416 4.6812e-08 13.0735 0 12.0025Z" fill="#448FDA"/>
</svg>
