<svg width="25" height="24" viewBox="0 0 25 24" fill="none" xmlns="http://www.w3.org/2000/svg">
<ellipse cx="12.1154" cy="12" rx="12.1154" ry="12" fill="#448FDA"/>
<path fill-rule="evenodd" clip-rule="evenodd" d="M7.34852 10.6599C7.72403 10.288 8.33284 10.288 8.70834 10.6599L11.593 13.517C11.9685 13.889 11.9685 14.492 11.593 14.8639C11.2175 15.2358 10.6086 15.2358 10.2331 14.8639L7.34852 12.0068C6.97302 11.6348 6.97302 11.0318 7.34852 10.6599Z" fill="white"/>
<path fill-rule="evenodd" clip-rule="evenodd" d="M10.2333 14.8639C9.85778 14.492 9.85778 13.889 10.2333 13.5171L15.5218 8.27896C15.8973 7.90703 16.5061 7.90703 16.8816 8.27896C17.2571 8.65088 17.2571 9.2539 16.8816 9.62583L11.5931 14.8639C11.2176 15.2359 10.6088 15.2359 10.2333 14.8639Z" fill="white"/>
</svg>
