<svg width="16" height="17" viewBox="0 0 16 17" fill="none" xmlns="http://www.w3.org/2000/svg">
<path fill-rule="evenodd" clip-rule="evenodd" d="M0.624834 15.832C-0.208278 14.9989 -0.208278 13.6482 0.624835 12.815L12.3581 1.0818C13.1912 0.248688 14.5419 0.248688 15.3751 1.0818C16.2082 1.91491 16.2082 3.26565 15.3751 4.09877L3.6418 15.832C2.80869 16.6651 1.45795 16.6651 0.624834 15.832Z" fill="#DC3545"/>
<path fill-rule="evenodd" clip-rule="evenodd" d="M15.3752 15.832C14.5421 16.6651 13.1913 16.6651 12.3582 15.832L0.624951 4.09876C-0.208162 3.26565 -0.208162 1.91491 0.624951 1.0818C1.45806 0.248685 2.80881 0.248685 3.64192 1.0818L15.3752 12.815C16.2083 13.6482 16.2083 14.9989 15.3752 15.832Z" fill="#DC3545"/>
</svg>
