<svg width="24" height="24" viewBox="0 0 24 24" fill="none" xmlns="http://www.w3.org/2000/svg">
<circle cx="12" cy="12" r="12" fill="#448FDA"/>
<path d="M12 9.96297C10.8768 9.96297 9.96297 10.8768 9.96297 12C9.96297 13.1232 10.8768 14.037 12 14.037C12.5833 14.037 13.1098 13.7902 13.4815 13.3959C13.8532 13.7902 14.3796 14.037 14.963 14.037C16.0862 14.037 17 13.1232 17 12C17 9.24301 14.757 7 12 7C9.24301 7 7 9.24301 7 12C7 14.757 9.24301 17 12 17C13.3355 17 14.5912 16.4799 15.5355 15.5355L14.7499 14.7499C14.0153 15.4844 13.0388 15.8889 12 15.8889C9.85566 15.8889 8.11111 14.1443 8.11111 12C8.11111 9.85566 9.85566 8.11111 12 8.11111C14.1443 8.11111 15.8889 9.85566 15.8889 12C15.8889 12.5105 15.4735 12.9259 14.963 12.9259C14.4524 12.9259 14.0371 12.5105 14.0371 12V12C14.037 10.8768 13.1232 9.96297 12 9.96297ZM12 12.9259C11.4895 12.9259 11.0741 12.5105 11.0741 12C11.0741 11.4895 11.4895 11.0741 12 11.0741C12.5105 11.0741 12.9259 11.4895 12.9259 12C12.9259 12.5105 12.5105 12.9259 12 12.9259Z" fill="white"/>
</svg>
