<svg width="14" height="14" viewBox="0 0 14 14" fill="none" xmlns="http://www.w3.org/2000/svg">
<path d="M0 7C0 3.13401 3.13401 0 7 0C10.866 0 14 3.13401 14 7C14 10.866 10.866 14 7 14C3.13401 14 0 10.866 0 7Z" fill="#AE2338"/>
<path d="M6.16663 5.33333C6.16663 4.8731 6.53972 4.5 6.99996 4.5C7.4602 4.5 7.83329 4.8731 7.83329 5.33333V11.1667C7.83329 11.6269 7.4602 12 6.99996 12C6.53972 12 6.16663 11.6269 6.16663 11.1667V5.33333Z" fill="white"/>
<path d="M6.16663 2.83333C6.16663 2.3731 6.53972 2 6.99996 2C7.4602 2 7.83329 2.3731 7.83329 2.83333C7.83329 3.29357 7.4602 3.66667 6.99996 3.66667C6.53972 3.66667 6.16663 3.29357 6.16663 2.83333Z" fill="white"/>
</svg>
