<svg width="10" height="10" viewBox="0 0 10 10" fill="none" xmlns="http://www.w3.org/2000/svg">
<path fill-rule="evenodd" clip-rule="evenodd" d="M0.206173 4.50076C0.48107 4.22586 0.926767 4.22586 1.20166 4.50076L5.07322 8.37231C5.34812 8.64721 5.34812 9.09291 5.07322 9.36781C4.79832 9.6427 4.35262 9.6427 4.07773 9.36781L0.206173 5.49625C-0.0687248 5.22135 -0.0687248 4.77566 0.206173 4.50076Z" fill="black"/>
<path fill-rule="evenodd" clip-rule="evenodd" d="M0.206173 5.49925C-0.0687248 5.22435 -0.0687248 4.77865 0.206173 4.50375L4.07773 0.632198C4.35262 0.357301 4.79832 0.357301 5.07322 0.632198C5.34812 0.907096 5.34812 1.35279 5.07322 1.62769L1.20166 5.49925C0.926767 5.77414 0.48107 5.77414 0.206173 5.49925Z" fill="black"/>
<path fill-rule="evenodd" clip-rule="evenodd" d="M10 4.99904C10 5.40724 9.66909 5.73815 9.26088 5.73815L0.971303 5.73815C0.563101 5.73815 0.232188 5.40724 0.232187 4.99904C0.232187 4.59083 0.563101 4.25992 0.971303 4.25992L9.26088 4.25992C9.66909 4.25992 10 4.59083 10 4.99904Z" fill="black"/>
</svg>
