<svg width="24" height="24" viewBox="0 0 24 24" fill="none" xmlns="http://www.w3.org/2000/svg">
<circle cx="12" cy="12" r="12" fill="#448FDA"/>
<path d="M16.7173 14.339L15.3218 12.9435C14.8234 12.4451 13.9761 12.6444 13.7767 13.2923C13.6272 13.7409 13.1288 13.9901 12.6803 13.8904C11.6834 13.6412 10.3378 12.3454 10.0886 11.2987C9.93903 10.8501 10.2381 10.3517 10.6866 10.2022C11.3346 10.0029 11.5339 9.15559 11.0355 8.65719L9.63999 7.26166C9.24127 6.91278 8.64319 6.91278 8.29431 7.26166L7.34734 8.20863C6.40038 9.20543 7.44702 11.847 9.78951 14.1895C12.132 16.532 14.7735 17.6285 15.7703 16.6316L16.7173 15.6847C17.0662 15.2859 17.0662 14.6879 16.7173 14.339Z" fill="white"/>
</svg>
