<svg width="70" height="14" viewBox="0 0 70 14" fill="none" xmlns="http://www.w3.org/2000/svg">
<path d="M6.553 2.48522C6.76321 1.83826 7.67849 1.83826 7.8887 2.48522L8.63977 4.79678C8.73378 5.08611 9.0034 5.282 9.30762 5.282H11.7381C12.4184 5.282 12.7012 6.15248 12.1509 6.55232L10.1846 7.98094C9.93844 8.15976 9.83546 8.47672 9.92947 8.76604L10.6805 11.0776C10.8907 11.7246 10.1503 12.2625 9.59993 11.8627L7.63361 10.4341C7.38749 10.2553 7.05422 10.2553 6.8081 10.4341L4.84177 11.8627C4.29143 12.2625 3.55096 11.7246 3.76117 11.0776L4.51224 8.76604C4.60625 8.47672 4.50326 8.15976 4.25715 7.98094L2.29082 6.55232C1.74048 6.15248 2.02332 5.282 2.70357 5.282H5.13409C5.4383 5.282 5.70793 5.08611 5.80193 4.79678L6.553 2.48522Z" fill="#AE2338"/>
<path d="M20.553 2.48522C20.7632 1.83826 21.6785 1.83826 21.8887 2.48522L22.6398 4.79678C22.7338 5.08611 23.0034 5.282 23.3076 5.282H25.7381C26.4184 5.282 26.7012 6.15248 26.1509 6.55232L24.1846 7.98094C23.9384 8.15976 23.8355 8.47672 23.9295 8.76604L24.6805 11.0776C24.8907 11.7246 24.1503 12.2625 23.5999 11.8627L21.6336 10.4341C21.3875 10.2553 21.0542 10.2553 20.8081 10.4341L18.8418 11.8627C18.2914 12.2625 17.551 11.7246 17.7612 11.0776L18.5122 8.76604C18.6062 8.47672 18.5033 8.15976 18.2571 7.98094L16.2908 6.55232C15.7405 6.15248 16.0233 5.282 16.7036 5.282H19.1341C19.4383 5.282 19.7079 5.08611 19.8019 4.79678L20.553 2.48522Z" fill="#AE2338"/>
<path d="M34.553 2.48522C34.7632 1.83826 35.6785 1.83826 35.8887 2.48522L36.6398 4.79678C36.7338 5.08611 37.0034 5.282 37.3076 5.282H39.7381C40.4184 5.282 40.7012 6.15248 40.1509 6.55232L38.1846 7.98094C37.9384 8.15976 37.8355 8.47672 37.9295 8.76604L38.6805 11.0776C38.8907 11.7246 38.1503 12.2625 37.5999 11.8627L35.6336 10.4341C35.3875 10.2553 35.0542 10.2553 34.8081 10.4341L32.8418 11.8627C32.2914 12.2625 31.551 11.7246 31.7612 11.0776L32.5122 8.76604C32.6062 8.47672 32.5033 8.15976 32.2571 7.98094L30.2908 6.55232C29.7405 6.15248 30.0233 5.282 30.7036 5.282H33.1341C33.4383 5.282 33.7079 5.08611 33.8019 4.79678L34.553 2.48522Z" fill="#AE2338"/>
<path d="M48.553 2.48522C48.7632 1.83826 49.6785 1.83826 49.8887 2.48522L50.6398 4.79678C50.7338 5.08611 51.0034 5.282 51.3076 5.282H53.7381C54.4184 5.282 54.7012 6.15248 54.1509 6.55232L52.1846 7.98094C51.9384 8.15976 51.8355 8.47672 51.9295 8.76604L52.6805 11.0776C52.8907 11.7246 52.1503 12.2625 51.5999 11.8627L49.6336 10.4341C49.3875 10.2553 49.0542 10.2553 48.8081 10.4341L46.8418 11.8627C46.2914 12.2625 45.551 11.7246 45.7612 11.0776L46.5122 8.76604C46.6062 8.47672 46.5033 8.15976 46.2571 7.98094L44.2908 6.55232C43.7405 6.15248 44.0233 5.282 44.7036 5.282H47.1341C47.4383 5.282 47.7079 5.08611 47.8019 4.79678L48.553 2.48522Z" fill="#AE2338"/>
<path d="M62.553 2.48522C62.7632 1.83826 63.6785 1.83826 63.8887 2.48522L64.6398 4.79678C64.7338 5.08611 65.0034 5.282 65.3076 5.282H67.7381C68.4184 5.282 68.7012 6.15248 68.1509 6.55232L66.1846 7.98094C65.9384 8.15976 65.8355 8.47672 65.9295 8.76604L66.6805 11.0776C66.8907 11.7246 66.1503 12.2625 65.5999 11.8627L63.6336 10.4341C63.3875 10.2553 63.0542 10.2553 62.8081 10.4341L60.8418 11.8627C60.2914 12.2625 59.551 11.7246 59.7612 11.0776L60.5122 8.76604C60.6062 8.47672 60.5033 8.15976 60.2571 7.98094L58.2908 6.55232C57.7405 6.15248 58.0233 5.282 58.7036 5.282H61.1341C61.4383 5.282 61.7079 5.08611 61.8019 4.79678L62.553 2.48522Z" fill="#AE2338"/>
</svg>
