<svg width="17" height="12" viewBox="0 0 17 12" fill="none" xmlns="http://www.w3.org/2000/svg">
<path fill-rule="evenodd" clip-rule="evenodd" d="M0.946314 4.71282C1.5414 4.11774 2.50622 4.11774 3.10131 4.71282L7.67275 9.28426C8.26783 9.87935 8.26783 10.8442 7.67275 11.4393C7.07766 12.0343 6.11284 12.0343 5.51775 11.4393L0.946314 6.86782C0.351229 6.27274 0.351229 5.30791 0.946314 4.71282Z" fill="#448FDA"/>
<path fill-rule="evenodd" clip-rule="evenodd" d="M5.51774 11.4392C4.92265 10.8442 4.92265 9.87933 5.51774 9.28425L13.8987 0.90328C14.4938 0.308195 15.4586 0.308195 16.0537 0.90328C16.6488 1.49837 16.6488 2.46319 16.0537 3.05828L7.67274 11.4392C7.07765 12.0343 6.11283 12.0343 5.51774 11.4392Z" fill="#448FDA"/>
</svg>
